<svg xmlns="http://www.w3.org/2000/svg" xmlns:xlink="http://www.w3.org/1999/xlink" width="196.078" height="196.078" x="0" y="0" version="1.1" viewBox="0, 0, 196.078, 196.078">
    <g id="Document" transform="translate(-1.961, -2.07)">
        <g id="Medalion">
            <g>
                <path fill="#FFFFFF" d="M33.816,40.689 C66.315,4.05 122.427,0.69 159.066,33.189 C195.705,65.688 199.065,121.8 166.566,158.439 C134.067,195.078 77.955,198.438 41.316,165.939 C4.677,133.44 1.317,77.328 33.816,40.689 z"/>
                <path fill-opacity="0" stroke="#FFFFFF" stroke-miterlimit="79" stroke-width="1" d="M33.816,40.689 C66.315,4.05 122.427,0.69 159.066,33.189 C195.705,65.688 199.065,121.8 166.566,158.439 C134.067,195.078 77.955,198.438 41.316,165.939 C4.677,133.44 1.317,77.328 33.816,40.689 z"/>
            </g>
            <g id="Group">
                <text transform="matrix(1, 0, 0, 1, 97.566, 24.202)">
                    <tspan x="-7" y="5.5" fill="#000000" font-family="TimesNewRomanPS-BoldMT" font-size="18">N</tspan>
                </text>
                <text transform="matrix(1, 0, 0, 1, 100.053, 175.877)">
                    <tspan x="-5.505" y="5.5" fill="#000000" font-family="TimesNewRomanPS-BoldMT" font-size="18">S</tspan>
                </text>
                <g>
                    <text transform="matrix(1, 0, 0, 1, 23.328, 99.669)">
                        <tspan x="-9.5" y="5.5" fill="#000000" font-family="TimesNewRomanPS-BoldMT" font-size="18">W</tspan>
                    </text>
                    <text transform="matrix(1, 0, 0, 1, 178.623, 99.669)">
                        <tspan x="-6.503" y="5.5" fill="#000000" font-family="TimesNewRomanPS-BoldMT" font-size="18">E</tspan>
                    </text>
                </g>
                <path fill-opacity="0" stroke="#000000" stroke-width="5" d="M189.039,100.109 C189.039,149.283 149.175,189.148 100,189.148 C50.825,189.148 10.961,149.283 10.961,100.109 C10.961,50.934 50.825,11.07 100,11.07 C149.175,11.07 189.039,50.934 189.039,100.109 z"/>
                <path fill="#005447" d="M165.147,100.118 C165.147,135.801 135.961,164.724 99.958,164.724 C63.956,164.724 34.77,135.801 34.77,100.118 C34.77,64.438 63.956,35.513 99.958,35.513 C135.961,35.513 165.147,64.438 165.147,100.118 z"/>
                <path fill-opacity="0" stroke="#005447" stroke-width="5" d="M165.147,100.118 C165.147,135.801 135.961,164.724 99.958,164.724 C63.956,164.724 34.77,135.801 34.77,100.118 C34.77,64.438 63.956,35.513 99.958,35.513 C135.961,35.513 165.147,64.438 165.147,100.118 z"/>
                <path fill="#FF1A00" d="M99.675,167.614 C99.675,167.614 167.155,100.134 167.155,100.134 C167.155,100.134 99.675,32.653 99.675,32.653 C99.675,32.653 32.193,100.134 32.193,100.134 C32.193,100.134 99.675,167.614 99.675,167.614 z"/>
                <path fill="#8ADBFF" d="M146.879,53.411 C146.879,53.411 146.879,114.913 146.879,114.913 C145.96,136.233 132.79,151.814 99.76,162.047 C79.805,154.821 51.934,141.837 52.393,115.049 C52.484,109.704 52.393,53.411 52.393,53.411 C52.393,53.411 146.879,53.411 146.879,53.411 z"/>
                <path fill-opacity="0" stroke="#FEDE58" stroke-width="2" d="M146.879,53.411 C146.879,53.411 146.879,114.913 146.879,114.913 C145.96,136.233 132.79,151.814 99.76,162.047 C79.805,154.821 51.934,141.837 52.393,115.049 C52.484,109.704 52.393,53.411 52.393,53.411 C52.393,53.411 146.879,53.411 146.879,53.411 z"/>
                <path fill="#FEDE58" d="M99.764,99.846 C99.853,99.784 93.576,92.521 93.668,92.445 C94.227,91.986 94.792,91.294 94.792,90.685 C94.792,89.976 94.792,67.449 94.792,67.449 C94.084,65.465 92.384,63.622 91.675,62.985 C90.966,62.348 90.258,61.427 90.258,61.427 C90.683,60.222 91.392,61.143 92.242,61.285 C93.092,61.427 94.957,62.145 96.17,61.701 C97.383,61.258 97.342,59.727 98.264,58.947 C99.184,58.168 98.406,58.376 99.684,58.372 L99.764,99.846 z"/>
                <path fill-opacity="0" stroke="#FEDE58" stroke-width="1" d="M99.764,99.846 C99.853,99.784 93.576,92.521 93.668,92.445 C94.227,91.986 94.792,91.294 94.792,90.685 C94.792,89.976 94.792,67.449 94.792,67.449 C94.084,65.465 92.384,63.622 91.675,62.985 C90.966,62.348 90.258,61.427 90.258,61.427 C90.683,60.222 91.392,61.143 92.242,61.285 C93.092,61.427 94.957,62.145 96.17,61.701 C97.383,61.258 97.342,59.727 98.264,58.947 C99.184,58.168 98.406,58.376 99.684,58.372"/>
                <path fill="#FEDE58" d="M99.742,96.539 C99.67,96.432 104.91,91.691 104.857,91.62 C104.594,91.269 104.545,91.269 104.545,90.679 C104.545,89.971 104.545,67.443 104.545,67.443 C105.255,65.459 106.954,63.617 107.662,62.98 C108.371,62.342 109.079,61.421 109.079,61.421 C108.655,60.216 107.944,61.137 107.097,61.28 C106.245,61.422 104.38,62.139 103.168,61.695 C101.955,61.252 101.995,59.722 101.075,58.942 C100.154,58.162 100.932,58.37 99.654,58.367 L99.742,96.539 z"/>
                <path fill-opacity="0" stroke="#FEDE58" stroke-width="1" d="M99.742,96.539 C99.67,96.432 104.91,91.691 104.857,91.62 C104.594,91.269 104.545,91.269 104.545,90.679 C104.545,89.971 104.545,67.443 104.545,67.443 C105.255,65.459 106.954,63.617 107.662,62.98 C108.371,62.342 109.079,61.421 109.079,61.421 C108.655,60.216 107.944,61.137 107.097,61.28 C106.245,61.422 104.38,62.139 103.168,61.695 C101.955,61.252 101.995,59.722 101.075,58.942 C100.154,58.162 100.932,58.37 99.654,58.367"/>
                <path fill="#FEDE58" d="M98.778,98.147 C98.7,98.014 93.834,103.827 93.728,103.699 C93.343,103.231 92.793,102.837 92.236,102.837 C91.528,102.837 68.999,102.837 68.999,102.837 C67.016,103.545 65.174,105.246 64.536,105.955 C63.898,106.662 62.977,107.373 62.977,107.373 C61.772,106.947 62.694,106.236 62.836,105.388 C62.977,104.537 63.696,102.672 63.252,101.46 C62.808,100.248 61.278,100.287 60.498,99.367 C59.718,98.445 59.927,99.225 59.923,97.946 L98.778,98.147 z"/>
                <path fill-opacity="0" stroke="#FEDE58" stroke-width="1" d="M98.778,98.147 C98.7,98.014 93.834,103.827 93.728,103.699 C93.343,103.231 92.793,102.837 92.236,102.837 C91.528,102.837 68.999,102.837 68.999,102.837 C67.016,103.545 65.174,105.246 64.536,105.955 C63.898,106.662 62.977,107.373 62.977,107.373 C61.772,106.947 62.694,106.236 62.836,105.388 C62.977,104.537 63.696,102.672 63.252,101.46 C62.808,100.248 61.278,100.287 60.498,99.367 C59.718,98.445 59.927,99.225 59.923,97.946"/>
                <path fill="#FEDE58" d="M99.512,100.579 C99.454,100.618 93.325,92.663 93.278,92.697 C92.816,93.025 92.874,93.083 92.23,93.083 C91.522,93.083 68.994,93.083 68.994,93.083 C67.01,92.376 65.167,90.675 64.53,89.967 C63.892,89.258 62.972,88.55 62.972,88.55 C61.767,88.975 62.687,89.685 62.83,90.534 C62.972,91.383 63.69,93.248 63.246,94.461 C62.802,95.674 61.272,95.634 60.492,96.555 C59.713,97.476 59.92,96.697 59.917,97.975 L99.512,100.579 z"/>
                <path fill-opacity="0" stroke="#FEDE58" stroke-width="1" d="M99.512,100.579 C99.454,100.618 93.325,92.663 93.278,92.697 C92.816,93.025 92.874,93.083 92.23,93.083 C91.522,93.083 68.994,93.083 68.994,93.083 C67.01,92.376 65.167,90.675 64.53,89.967 C63.892,89.258 62.972,88.55 62.972,88.55 C61.767,88.975 62.687,89.685 62.83,90.534 C62.972,91.383 63.69,93.248 63.246,94.461 C62.802,95.674 61.272,95.634 60.492,96.555 C59.713,97.476 59.92,96.697 59.917,97.975"/>
                <path fill="#FEDE58" d="M99.1,97.872 C99.004,97.938 105.215,103.209 105.117,103.291 C104.565,103.751 104.014,104.433 104.014,105.035 C104.014,105.742 104.014,128.271 104.014,128.271 C104.722,130.254 106.423,132.096 107.131,132.734 C107.839,133.371 108.547,134.291 108.547,134.291 C108.122,135.496 107.414,134.578 106.565,134.433 C105.713,134.291 103.849,133.574 102.635,134.017 C101.423,134.461 101.462,135.992 100.543,136.773 C99.62,137.551 100.401,137.342 99.121,137.347 L99.1,97.872 z"/>
                <path fill-opacity="0" stroke="#FEDE58" stroke-width="1" d="M99.1,97.872 C99.004,97.938 105.215,103.209 105.117,103.291 C104.565,103.751 104.014,104.433 104.014,105.035 C104.014,105.742 104.014,128.271 104.014,128.271 C104.722,130.254 106.423,132.096 107.131,132.734 C107.839,133.371 108.547,134.291 108.547,134.291 C108.122,135.496 107.414,134.578 106.565,134.433 C105.713,134.291 103.849,133.574 102.635,134.017 C101.423,134.461 101.462,135.992 100.543,136.773 C99.62,137.551 100.401,137.342 99.121,137.347"/>
                <path fill="#FEDE58" d="M99.007,98.055 C99.036,98.097 93.818,103.915 93.843,103.95 C94.198,104.458 94.26,104.378 94.26,105.041 C94.26,105.748 94.26,128.277 94.26,128.277 C93.553,130.26 91.851,132.101 91.143,132.738 C90.434,133.377 89.727,134.299 89.727,134.299 C90.151,135.502 90.861,134.582 91.71,134.439 C92.56,134.299 94.425,133.58 95.637,134.023 C96.85,134.467 96.81,135.998 97.732,136.777 C98.653,137.558 97.873,137.349 99.151,137.353 L99.007,98.055 z"/>
                <path fill-opacity="0" stroke="#FEDE58" stroke-width="1" d="M99.007,98.055 C99.036,98.097 93.818,103.915 93.843,103.95 C94.198,104.458 94.26,104.378 94.26,105.041 C94.26,105.748 94.26,128.277 94.26,128.277 C93.553,130.26 91.851,132.101 91.143,132.738 C90.434,133.377 89.727,134.299 89.727,134.299 C90.151,135.502 90.861,134.582 91.71,134.439 C92.56,134.299 94.425,133.58 95.637,134.023 C96.85,134.467 96.81,135.998 97.732,136.777 C98.653,137.558 97.873,137.349 99.151,137.353"/>
                <path fill="#FEDE58" d="M98.595,98.01 C100.293,96.311 105.018,91.812 105.06,91.863 C105.52,92.419 105.921,92.882 106.571,92.882 C107.278,92.882 129.808,92.882 129.808,92.882 C131.791,92.174 133.633,90.473 134.27,89.764 C134.909,89.056 135.829,88.347 135.829,88.347 C137.035,88.773 136.112,89.482 135.97,90.332 C135.829,91.182 135.112,93.046 135.554,94.259 C135.998,95.472 137.53,95.431 138.308,96.353 C139.087,97.274 138.881,96.494 138.885,97.773 L98.595,98.01 z"/>
                <path fill-opacity="0" stroke="#FEDE58" stroke-width="1" d="M98.595,98.01 C100.293,96.311 105.018,91.812 105.06,91.863 C105.52,92.419 105.921,92.882 106.571,92.882 C107.278,92.882 129.808,92.882 129.808,92.882 C131.791,92.174 133.633,90.473 134.27,89.764 C134.909,89.056 135.829,88.347 135.829,88.347 C137.035,88.773 136.112,89.482 135.97,90.332 C135.829,91.182 135.112,93.046 135.554,94.259 C135.998,95.472 137.53,95.431 138.308,96.353 C139.087,97.274 138.881,96.494 138.885,97.773"/>
                <path fill="#FEDE58" d="M99.1,97.872 C100.431,99.019 105.068,103.402 105.158,103.333 C105.406,103.145 106.056,102.637 106.577,102.637 C107.284,102.637 129.815,102.637 129.815,102.637 C131.797,103.344 133.639,105.043 134.276,105.754 C134.912,106.461 135.836,107.168 135.836,107.168 C137.04,106.744 136.119,106.035 135.977,105.185 C135.836,104.336 135.118,102.471 135.561,101.258 C136.004,100.046 137.536,100.085 138.314,99.164 C139.095,98.243 138.887,99.023 138.889,97.743 L99.1,97.872 z"/>
                <path fill-opacity="0" stroke="#FEDE58" stroke-width="1" d="M99.1,97.872 C100.431,99.019 105.068,103.402 105.158,103.333 C105.406,103.145 106.056,102.637 106.577,102.637 C107.284,102.637 129.815,102.637 129.815,102.637 C131.797,103.344 133.639,105.043 134.276,105.754 C134.912,106.461 135.836,107.168 135.836,107.168 C137.04,106.744 136.119,106.035 135.977,105.185 C135.836,104.336 135.118,102.471 135.561,101.258 C136.004,100.046 137.536,100.085 138.314,99.164 C139.095,98.243 138.887,99.023 138.889,97.743"/>
                <path fill="#FEDE58" d="M65.978,110.685 C65.727,111.047 64.587,111.549 64.587,111.549 C64.587,111.549 64.678,112.097 64.678,112.097 C65.454,112.097 65.579,112.844 65.831,113.169 C66.231,113.718 66.429,114.11 66.684,114.334 C67.461,115.015 67.598,115.382 69.797,116.291 C69.8,116.293 69.905,116.334 69.92,116.34 C69.918,116.342 69.916,116.344 69.916,116.348 C69.916,116.389 69.949,116.513 69.949,116.513 C69.949,116.513 70.401,117.877 70.401,117.877 C70.506,118.4 70.636,119.051 71.21,119.447 C71.21,119.447 72.444,120.419 72.444,120.419 C72.651,120.586 74.466,121.778 74.623,121.904 C74.328,121.972 73.483,122.499 73.483,122.499 C73.159,122.681 72.571,122.452 72.251,122.772 C72.24,122.782 72.546,123.343 72.753,123.365 C73.984,123.503 74.988,123.365 74.988,122.726 C74.988,122.636 75.581,122.543 75.869,122.691 C75.977,122.805 76.995,123.593 76.995,123.593 C77.603,124.256 76.916,124.212 77.269,124.323 C77.344,124.35 78.364,124.369 78.364,124.369 C78.638,123.092 80.14,123.472 80.371,123.41 C80.878,123.278 81.711,123.199 82.516,123.228 C82.516,123.228 84.07,123.189 84.44,123.377 C84.869,123.593 87.397,124.141 87.397,124.141 C87.854,123.958 88.51,124.021 89.085,123.138 C88.949,122.59 88.903,122.737 88.903,122.406 C88.903,122.111 88.629,121.921 88.401,121.539 C88.529,121.588 89.076,121.158 89.131,121.084 C89.386,120.747 89.679,120.767 89.679,120.354 C89.223,119.26 89.375,119.673 89.177,119.532 C88.401,118.986 86.805,118.256 86.805,118.256 C86.531,117.799 84.999,116.656 84.112,115.654 C84.112,115.654 82.073,113.643 82.073,113.643 C80.509,112.162 78.069,111.469 76.858,111.23 C75.953,111.051 74.453,110.91 73.105,111.026 C72.532,110.28 71.596,109.251 70.029,109.104 C67.871,108.904 66.489,110.272 65.978,110.685 z"/>
                <path fill="#FEDE58" d="M110.53,111.314 C110.28,111.676 109.139,112.178 109.139,112.178 C109.139,112.178 109.23,112.724 109.23,112.724 C110.006,112.724 110.131,113.472 110.383,113.797 C110.783,114.346 110.981,114.738 111.236,114.963 C112.013,115.644 112.15,116.01 114.349,116.92 C114.352,116.922 114.456,116.963 114.471,116.969 C114.469,116.971 114.467,116.972 114.467,116.976 C114.467,117.017 114.5,117.142 114.5,117.142 C114.5,117.142 114.954,118.506 114.954,118.506 C115.057,119.029 115.188,119.68 115.762,120.076 C115.762,120.076 116.995,121.047 116.995,121.047 C117.204,121.215 119.018,122.406 119.175,122.533 C118.879,122.601 118.035,123.127 118.035,123.127 C117.71,123.31 117.122,123.08 116.803,123.4 C116.791,123.41 117.098,123.971 117.305,123.994 C118.536,124.131 119.539,123.994 119.539,123.355 C119.539,123.263 120.134,123.172 120.42,123.32 C120.529,123.433 121.547,124.221 121.547,124.221 C122.155,124.885 121.467,124.84 121.822,124.951 C121.896,124.978 122.915,124.998 122.915,124.998 C123.19,123.721 124.692,124.101 124.923,124.039 C125.429,123.906 126.263,123.828 127.068,123.857 C127.068,123.857 128.621,123.818 128.992,124.006 C129.42,124.221 131.949,124.769 131.949,124.769 C132.406,124.586 133.062,124.65 133.637,123.765 C133.501,123.219 133.454,123.365 133.454,123.035 C133.454,122.74 133.181,122.549 132.953,122.168 C133.08,122.217 133.628,121.787 133.683,121.713 C133.938,121.375 134.23,121.396 134.23,120.982 C133.775,119.888 133.927,120.301 133.729,120.16 C132.953,119.615 131.357,118.885 131.357,118.885 C131.082,118.428 129.551,117.285 128.663,116.283 C128.663,116.283 126.624,114.271 126.624,114.271 C125.06,112.791 122.62,112.097 121.411,111.859 C120.504,111.68 119.004,111.539 117.657,111.654 C117.083,110.908 116.147,109.879 114.58,109.732 C112.423,109.533 111.041,110.9 110.53,111.314 z"/>
                <path fill="#FEDE58" d="M66.392,71.306 C66.141,71.668 65.001,72.17 65.001,72.17 C65.001,72.17 65.092,72.718 65.092,72.718 C65.868,72.718 65.993,73.465 66.245,73.79 C66.645,74.339 66.843,74.731 67.098,74.955 C67.875,75.637 68.012,76.003 70.211,76.912 C70.214,76.914 70.319,76.955 70.334,76.961 C70.332,76.963 70.33,76.965 70.33,76.97 C70.33,77.011 70.363,77.135 70.363,77.135 C70.363,77.135 70.815,78.498 70.815,78.498 C70.92,79.021 71.05,79.672 71.624,80.068 C71.624,80.068 72.858,81.04 72.858,81.04 C73.065,81.207 74.88,82.399 75.037,82.525 C74.742,82.594 73.897,83.12 73.897,83.12 C73.573,83.303 72.985,83.073 72.665,83.393 C72.654,83.403 72.96,83.964 73.167,83.986 C74.398,84.124 75.402,83.986 75.402,83.347 C75.402,83.257 75.995,83.164 76.283,83.312 C76.391,83.426 77.41,84.214 77.41,84.214 C78.017,84.877 77.33,84.833 77.684,84.944 C77.758,84.972 78.778,84.99 78.778,84.99 C79.052,83.713 80.554,84.094 80.786,84.031 C81.291,83.899 82.125,83.82 82.93,83.849 C82.93,83.849 84.484,83.81 84.854,83.998 C85.283,84.214 87.811,84.763 87.811,84.763 C88.268,84.579 88.924,84.642 89.499,83.759 C89.364,83.211 89.317,83.358 89.317,83.027 C89.317,82.732 89.043,82.542 88.815,82.16 C88.943,82.209 89.491,81.779 89.545,81.705 C89.8,81.368 90.092,81.388 90.092,80.975 C89.637,79.881 89.789,80.294 89.591,80.153 C88.815,79.607 87.219,78.877 87.219,78.877 C86.945,78.42 85.413,77.277 84.526,76.275 C84.526,76.275 82.487,74.264 82.487,74.264 C80.922,72.783 78.483,72.09 77.272,71.851 C76.367,71.672 74.867,71.531 73.519,71.647 C72.946,70.901 72.01,69.872 70.443,69.725 C68.286,69.525 66.903,70.893 66.392,71.306 z"/>
                <path fill="#FEDE58" d="M112.592,72.209 C112.34,72.57 111.2,73.072 111.2,73.072 C111.2,73.072 111.291,73.62 111.291,73.62 C112.067,73.62 112.192,74.367 112.444,74.692 C112.844,75.241 113.041,75.634 113.297,75.857 C114.075,76.539 114.211,76.905 116.411,77.814 C116.412,77.816 116.518,77.857 116.534,77.863 C116.532,77.865 116.53,77.867 116.53,77.872 C116.53,77.913 116.563,78.037 116.563,78.037 C116.563,78.037 117.014,79.4 117.014,79.4 C117.12,79.924 117.249,80.574 117.824,80.971 C117.824,80.971 119.057,81.942 119.057,81.942 C119.264,82.109 121.079,83.302 121.237,83.428 C120.942,83.496 120.096,84.022 120.096,84.022 C119.772,84.205 119.184,83.975 118.864,84.296 C118.854,84.305 119.16,84.866 119.366,84.888 C120.598,85.026 121.602,84.888 121.602,84.25 C121.602,84.159 122.195,84.066 122.482,84.215 C122.59,84.328 123.609,85.116 123.609,85.116 C124.216,85.779 123.53,85.735 123.883,85.847 C123.957,85.874 124.977,85.892 124.977,85.892 C125.251,84.615 126.753,84.996 126.985,84.933 C127.491,84.802 128.325,84.722 129.129,84.752 C129.129,84.752 130.683,84.713 131.053,84.9 C131.482,85.116 134.01,85.665 134.01,85.665 C134.467,85.481 135.123,85.545 135.699,84.661 C135.563,84.113 135.516,84.261 135.516,83.93 C135.516,83.635 135.243,83.444 135.014,83.062 C135.142,83.111 135.69,82.681 135.745,82.607 C135.999,82.27 136.291,82.291 136.291,81.878 C135.836,80.783 135.989,81.196 135.79,81.055 C135.014,80.51 133.418,79.779 133.418,79.779 C133.144,79.322 131.613,78.18 130.725,77.178 C130.725,77.178 128.686,75.167 128.686,75.167 C127.121,73.685 124.682,72.992 123.471,72.754 C122.567,72.574 121.067,72.433 119.718,72.55 C119.145,71.804 118.209,70.774 116.642,70.628 C114.485,70.428 113.102,71.796 112.592,72.209 z"/>
                <path fill="#FEDE58" d="M87.767,142.285 C87.516,142.646 86.376,143.148 86.376,143.148 C86.376,143.148 86.467,143.696 86.467,143.696 C87.243,143.696 87.368,144.443 87.62,144.768 C88.02,145.317 88.218,145.71 88.473,145.933 C89.25,146.615 89.387,146.981 91.586,147.89 C91.589,147.892 91.694,147.933 91.709,147.939 C91.707,147.941 91.705,147.943 91.705,147.948 C91.705,147.989 91.738,148.113 91.738,148.113 C91.738,148.113 92.19,149.476 92.19,149.476 C92.295,150 92.425,150.65 92.999,151.047 C92.999,151.047 94.233,152.018 94.233,152.018 C94.44,152.185 96.255,153.378 96.412,153.504 C96.117,153.572 95.272,154.098 95.272,154.098 C94.948,154.281 94.36,154.052 94.04,154.372 C94.029,154.382 94.335,154.942 94.542,154.965 C95.773,155.102 96.777,154.965 96.777,154.326 C96.777,154.235 97.37,154.142 97.658,154.292 C97.766,154.404 98.785,155.192 98.785,155.192 C99.392,155.855 98.705,155.811 99.059,155.923 C99.133,155.95 100.153,155.969 100.153,155.969 C100.427,154.691 101.929,155.072 102.161,155.01 C102.666,154.878 103.5,154.799 104.305,154.828 C104.305,154.828 105.859,154.789 106.229,154.976 C106.658,155.192 109.186,155.741 109.186,155.741 C109.643,155.557 110.299,155.621 110.874,154.737 C110.739,154.189 110.692,154.337 110.692,154.006 C110.692,153.711 110.418,153.52 110.19,153.138 C110.318,153.187 110.866,152.758 110.92,152.683 C111.175,152.347 111.467,152.367 111.467,151.954 C111.012,150.859 111.164,151.272 110.966,151.132 C110.19,150.586 108.594,149.855 108.594,149.855 C108.32,149.398 106.788,148.256 105.901,147.254 C105.901,147.254 103.862,145.243 103.862,145.243 C102.297,143.762 99.858,143.068 98.647,142.83 C97.743,142.65 96.242,142.51 94.894,142.626 C94.321,141.88 93.385,140.85 91.818,140.704 C89.661,140.504 88.278,141.872 87.767,142.285 z"/>
            </g>
        </g>
    </g>
</svg>
